<svg id="Layer_1" data-name="Layer 1" xmlns="http://www.w3.org/2000/svg" viewBox="0 0 500 500"><defs><style>.cls-1{fill:#179c49;}.cls-2{fill:#fff;fill-rule:evenodd;}</style></defs><rect class="cls-1" x="0.61" y="36.48" width="498.78" height="427.04"/><path class="cls-2" d="M43.88,193.77H22.61l51.6,50.95,51.61-50.95h-20V180.55h23.52q18.36,0,29.21,7.8,12.55,8.88,12.53,26.37,0,30.38-29.81,35.28v.28h-2a80,80,0,0,1-10.61.66H105.79v-.66H43.88V376.75h61.91V295.13h.68l58.37,81.62H238.6L170,290.63c19.47-3.07,35-12.35,46.41-27.67q16.49-21.7,16.52-51.89Q233,167,201.75,142q-14.52-11.7-37.19-15.55a155.77,155.77,0,0,0-20.39-2.16c-5.12-.29-11.9-.46-20.33-.46h-80Zm218-70.52H451.62v56.63H320.7v38h50.8v53.65H320.7v49H400V298.18h-25.8l51.61-59,51.6,59h-25.8V320.5h0v56.25H261.85Z"/></svg>