<?xml version="1.0" standalone="no"?>
<!DOCTYPE svg PUBLIC "-//W3C//DTD SVG 20010904//EN"
 "http://www.w3.org/TR/2001/REC-SVG-20010904/DTD/svg10.dtd">
<svg version="1.0" xmlns="http://www.w3.org/2000/svg"
 width="128.000000pt" height="128.000000pt" viewBox="0 0 128.000000 128.000000"
 preserveAspectRatio="xMidYMid meet">
<metadata>
Created by potrace 1.16, written by Peter Selinger 2001-2019
</metadata>
<g transform="translate(0.000000,128.000000) scale(0.100000,-0.100000)"
fill="#000000" stroke="none">
<path d="M530 1150 l0 -40 330 0 c323 0 330 0 330 20 0 11 -9 29 -20 40 -19
19 -33 20 -330 20 l-310 0 0 -40z"/>
<path d="M720 960 l315 -5 0 -70 c0 -69 0 -70 -27 -73 -16 -2 -28 -8 -28 -13
0 -5 47 -9 105 -9 l105 0 0 90 0 90 -392 -2 -393 -3 315 -5z"/>
<path d="M90 465 c0 -13 36 -15 260 -15 224 0 260 2 260 15 0 13 -36 15 -260
15 -224 0 -260 -2 -260 -15z"/>
<path d="M0 78 l0 -78 135 0 135 0 0 74 0 75 -135 3 -135 3 0 -77z"/>
<path d="M1265 138 c-9 -22 -16 -23 -132 -26 l-123 -3 0 -54 0 -55 135 0 135
0 0 80 c0 44 -1 80 -3 80 -1 0 -7 -10 -12 -22z"/>
</g>
</svg>
